<svg xmlns="http://www.w3.org/2000/svg" viewBox="0 0 640 400" width="640" height="400" role="img" aria-hidden="true">
  <defs>
    <linearGradient id="bg" x1="0" y1="0" x2="1" y2="1">
      <stop offset="0%" stop-color="#0b1f3a"/>
      <stop offset="100%" stop-color="#0f2a4d"/>
    </linearGradient>
    <radialGradient id="glow" cx="50%" cy="46%" r="55%">
      <stop offset="0%" stop-color="#b08d57" stop-opacity="0.22"/>
      <stop offset="100%" stop-color="#b08d57" stop-opacity="0"/>
    </radialGradient>
  </defs>
  <rect width="640" height="400" fill="url(#bg)"/>
  <rect width="640" height="400" fill="url(#glow)"/>
  <path d="M87.2 181.7 L157.8 181.7 L157.8 207.5 L552.9 207.5" stroke="#c9a468" stroke-opacity="0.15" stroke-width="1.5" fill="none"/>
<circle cx="157.8" cy="207.5" r="2.5" fill="#c9a468" fill-opacity="0.30"/>
<path d="M74.0 332.3 L117.7 332.3 L117.7 313.9 L606.7 313.9" stroke="#c9a468" stroke-opacity="0.11" stroke-width="1.5" fill="none"/>
<circle cx="117.7" cy="313.9" r="2.5" fill="#c9a468" fill-opacity="0.26"/>
<path d="M132.0 47.9 L187.3 47.9 L187.3 14.2 L445.0 14.2" stroke="#3a6ea5" stroke-opacity="0.15" stroke-width="1.5" fill="none"/>
<path d="M10.3 101.7 L89.2 101.7 L89.2 125.9 L519.6 125.9" stroke="#c9a468" stroke-opacity="0.11" stroke-width="1.5" fill="none"/>
<circle cx="89.2" cy="125.9" r="2.5" fill="#c9a468" fill-opacity="0.26"/>
<path d="M159.5 223.2 L246.0 223.2 L246.0 193.3 L542.2 193.3" stroke="#c9a468" stroke-opacity="0.14" stroke-width="1.5" fill="none"/>
<circle cx="246.0" cy="193.3" r="2.5" fill="#c9a468" fill-opacity="0.29"/>
<path d="M160.7 284.0 L213.8 284.0 L213.8 305.8 L517.5 305.8" stroke="#c9a468" stroke-opacity="0.08" stroke-width="1.5" fill="none"/>
<circle cx="213.8" cy="305.8" r="2.5" fill="#c9a468" fill-opacity="0.23"/>
<path d="M75.0 52.0 L144.2 52.0 L144.2 102.0 L457.3 102.0" stroke="#3a6ea5" stroke-opacity="0.12" stroke-width="1.5" fill="none"/>
<circle cx="144.2" cy="102.0" r="2.5" fill="#3a6ea5" fill-opacity="0.27"/>

  <g transform="translate(320 200)">
    
    <path d="M-84 8 L-30 8 L-4 -18 L22 8 L30 8" fill="none" stroke="#c9a468" stroke-width="4.5" stroke-linecap="round" stroke-linejoin="round"/>
    <path d="M84 -8 L30 -8 L4 18 L-22 -8 L-30 -8" fill="none" stroke="#3a6ea5" stroke-width="4.5" stroke-linecap="round" stroke-linejoin="round"/>
    <circle cx="-4" cy="-18" r="4" fill="#c9a468"/>
    <circle cx="4" cy="18" r="4" fill="#3a6ea5"/>
  
  </g>
</svg>