<svg xmlns="http://www.w3.org/2000/svg" viewBox="0 0 640 400" width="640" height="400" role="img" aria-hidden="true">
  <defs>
    <linearGradient id="bg" x1="0" y1="0" x2="1" y2="1">
      <stop offset="0%" stop-color="#0b1f3a"/>
      <stop offset="100%" stop-color="#0f2a4d"/>
    </linearGradient>
    <radialGradient id="glow" cx="50%" cy="46%" r="55%">
      <stop offset="0%" stop-color="#b08d57" stop-opacity="0.22"/>
      <stop offset="100%" stop-color="#b08d57" stop-opacity="0"/>
    </radialGradient>
  </defs>
  <rect width="640" height="400" fill="url(#bg)"/>
  <rect width="640" height="400" fill="url(#glow)"/>
  <path d="M73.8 223.3 L118.0 223.3 L118.0 242.8 L638.6 242.8" stroke="#c9a468" stroke-opacity="0.09" stroke-width="1.5" fill="none"/>
<circle cx="118.0" cy="242.8" r="2.5" fill="#c9a468" fill-opacity="0.24"/>
<path d="M134.3 330.5 L219.8 330.5 L219.8 355.1 L525.2 355.1" stroke="#3a6ea5" stroke-opacity="0.12" stroke-width="1.5" fill="none"/>
<circle cx="219.8" cy="355.1" r="2.5" fill="#3a6ea5" fill-opacity="0.27"/>
<path d="M132.4 67.2 L198.5 67.2 L198.5 35.6 L618.8 35.6" stroke="#c9a468" stroke-opacity="0.15" stroke-width="1.5" fill="none"/>
<path d="M8.3 134.8 L51.9 134.8 L51.9 189.4 L565.2 189.4" stroke="#c9a468" stroke-opacity="0.15" stroke-width="1.5" fill="none"/>
<path d="M143.8 127.5 L184.9 127.5 L184.9 106.2 L601.1 106.2" stroke="#c9a468" stroke-opacity="0.12" stroke-width="1.5" fill="none"/>
<path d="M189.2 116.3 L236.1 116.3 L236.1 164.7 L607.2 164.7" stroke="#c9a468" stroke-opacity="0.09" stroke-width="1.5" fill="none"/>
<circle cx="236.1" cy="164.7" r="2.5" fill="#c9a468" fill-opacity="0.24"/>
<path d="M156.9 374.5 L204.7 374.5 L204.7 394.3 L480.5 394.3" stroke="#c9a468" stroke-opacity="0.09" stroke-width="1.5" fill="none"/>

  <g transform="translate(320 200)">
    
    <path d="M0 -70 C34 -70 54 -46 54 -18 C54 24 0 74 0 74 C0 74 -54 24 -54 -18 C-54 -46 -34 -70 0 -70Z" fill="none" stroke="#c9a468" stroke-width="3.5" stroke-linejoin="round"/>
    <circle cx="0" cy="-16" r="20" fill="none" stroke="#3a6ea5" stroke-width="3"/>
    <circle cx="0" cy="-16" r="5" fill="#7fd99a"/>
  
  </g>
</svg>